<svg xmlns="http://www.w3.org/2000/svg" viewBox="0 0 514.26 100.3"><defs><style>.cls-1{fill:#fff;}.cls-2{fill:#e50012;}.cls-3{fill:#e60012;}</style></defs><g id="レイヤー_2" data-name="レイヤー 2"><g id="_レイヤー_" data-name="&lt;レイヤー&gt;"><path d="M131.35,38.73H110.5V79.46h21.69c6.46,0,15.86-7.79,15.86-21.13S140.07,38.73,131.35,38.73Zm-4.62,34.62h-3.4V45h3.83c3.77,0,8.22,2.78,8.22,14.1S130.43,73.35,126.73,73.35Z"/><path d="M224.91,38.73H204.06V79.46h21.69c6.46,0,15.86-7.79,15.86-21.13S233.63,38.73,224.91,38.73Zm-4.62,34.62h-3.4V45h3.83c3.78,0,8.22,2.78,8.22,14.1S224,73.35,220.29,73.35Z"/><path d="M170.54,79.46H184.8L171.12,38.73H160.29L145.37,79.46h7.38l2.95-7.79h12.44ZM158,65.63l4.58-12.08,3.72,12.08Z"/><rect x="185.97" y="38.73" width="12.83" height="40.73"/><path d="M357.24,53.14c0-10.4-8.56-14.52-20-14.52s-20.9,4.87-20.9,12.76,7.13,11.5,20.14,11.5c5.62,0,8,1.5,8,5s-1.84,5-8.21,5-7.89-2.44-7.89-5.46v-3H316v2.27c0,9.22,10.74,12.5,21.4,12.5s19.72-3.84,19.72-12.58-9.23-11.58-19-11.58c-7.13,0-9.06-1.52-9.06-5s2.77-5,8.31-5S345,47.6,345,50.79v2.42Z"/><polygon points="394.91 38.73 356.89 38.73 356.89 44.43 369.31 44.43 369.31 79.46 382.4 79.46 382.4 44.43 394.91 44.43 394.91 38.73"/><polygon points="491.05 73.75 491.05 38.73 477.62 38.73 477.62 79.46 514.26 79.46 514.26 73.75 491.05 73.75"/><path d="M263.55,37.74a20.84,20.84,0,1,0,20.84,20.84A20.84,20.84,0,0,0,263.55,37.74Zm0,34.12c-5.74,0-8.17-6.84-8.17-13.39s2.43-13.39,8.17-13.39,8.17,6.84,8.17,13.39S269.3,71.86,263.56,71.86Z"/><rect class="cls-1" x="33.61" y="40.62" width="39.79" height="34.21"/><path class="cls-2" d="M65.18,38.31,52.73,0,40.28,38.31H0L32.59,62,20.15,100.3,52.73,76.62,85.32,100.3,72.88,62l32.58-23.68ZM59.87,66.23A3.48,3.48,0,0,1,56.4,69.7H49.06a3.48,3.48,0,0,1-3.47-3.47V60.46A3.48,3.48,0,0,1,49.06,57H56.4a3.48,3.48,0,0,1,3.47,3.47Zm-1-12.61H46.27a1.78,1.78,0,0,1,0-3.56H58.91a1.78,1.78,0,1,1,0,3.56ZM67.57,71A1.79,1.79,0,0,1,64,71s0-24.8,0-24.7c0-.33-.23-.56-.64-.56H41.88c-.25,0-.64.19-.64.46V71a1.79,1.79,0,0,1-3.57,0V46a4.28,4.28,0,0,1,4.14-3.84H63.43a4.28,4.28,0,0,1,4.14,4Z"/><rect class="cls-3" x="49.07" y="60.48" width="7.21" height="5.65" rx="0.34"/><polygon points="434.26 44.43 434.26 38.73 396.23 38.73 396.23 79.46 434.26 79.46 434.26 73.72 409.6 73.72 409.6 62.05 429.22 62.05 429.22 55.67 409.6 55.67 409.6 44.43 434.26 44.43"/><polygon points="475.66 44.43 475.66 38.73 437.63 38.73 437.63 79.46 475.66 79.46 475.66 73.72 451 73.72 451 62.05 470.62 62.05 470.62 55.67 451 55.67 451 44.43 475.66 44.43"/></g></g></svg>