<svg id="Mediacorp_Secondary_Logo" data-name="Mediacorp Secondary Logo" xmlns="http://www.w3.org/2000/svg" xmlns:xlink="http://www.w3.org/1999/xlink" viewBox="0 0 303.12 42.45"><defs><style>.cls-1{fill:none;}.cls-2{clip-path:url(#clip-path);}.cls-3{fill:url(#linear-gradient);}.cls-4{clip-path:url(#clip-path-2);}.cls-5{fill:url(#linear-gradient-2);}.cls-6{clip-path:url(#clip-path-3);}.cls-7{fill:url(#linear-gradient-3);}.cls-8{clip-path:url(#clip-path-4);}.cls-9{fill:url(#linear-gradient-4);}.cls-10{clip-path:url(#clip-path-5);}.cls-11{fill:url(#linear-gradient-5);}.cls-12{clip-path:url(#clip-path-6);}.cls-13{fill:url(#linear-gradient-6);}.cls-14{clip-path:url(#clip-path-7);}.cls-15{fill:url(#linear-gradient-7);}.cls-16{clip-path:url(#clip-path-8);}.cls-17{fill:url(#linear-gradient-8);}.cls-18{clip-path:url(#clip-path-9);}.cls-19{fill:#002561;}</style><clipPath id="clip-path"><polygon class="cls-1" points="18.4 10.57 12.4 21.23 36.4 21.23 30.4 10.57 24.4 0 18.4 10.57"/></clipPath><linearGradient id="linear-gradient" x1="-294.11" y1="-15.66" x2="-293.11" y2="-15.66" gradientTransform="translate(7081.62 386.96) scale(24.04)" gradientUnits="userSpaceOnUse"><stop offset="0" stop-color="#eb008b"/><stop offset="0.2" stop-color="#eb008b"/><stop offset="1" stop-color="#452f91"/></linearGradient><clipPath id="clip-path-2"><polygon class="cls-1" points="72.47 21.23 60.47 21.23 66.47 31.88 72.47 42.45 78.47 31.88 84.47 21.23 72.47 21.23"/></clipPath><linearGradient id="linear-gradient-2" x1="-303.44" y1="-28.41" x2="-302.44" y2="-28.41" gradientTransform="translate(675.77 -6401.19) rotate(-90) scale(21.24)" gradientUnits="userSpaceOnUse"><stop offset="0" stop-color="#bcd75f"/><stop offset="0.1" stop-color="#bcd75f"/><stop offset="0.2" stop-color="#b3d25e"/><stop offset="0.35" stop-color="#9bc35b"/><stop offset="0.55" stop-color="#73ab57"/><stop offset="0.78" stop-color="#3c8a51"/><stop offset="1" stop-color="#00654a"/></linearGradient><clipPath id="clip-path-3"><polygon class="cls-1" points="66.47 10.57 60.47 21.23 84.47 21.23 78.47 10.57 72.47 0 66.47 10.57"/></clipPath><linearGradient id="linear-gradient-3" x1="-294.11" y1="-15.66" x2="-293.11" y2="-15.66" gradientTransform="translate(7129.69 386.96) scale(24.04)" gradientUnits="userSpaceOnUse"><stop offset="0" stop-color="#bcd75f"/><stop offset="0.93" stop-color="#007250"/><stop offset="1" stop-color="#007250"/></linearGradient><clipPath id="clip-path-4"><polygon class="cls-1" points="36.4 21.23 48.47 42.45 72.47 42.45 60.47 21.23 36.4 21.23"/></clipPath><linearGradient id="linear-gradient-4" x1="-303.44" y1="-28.41" x2="-302.44" y2="-28.41" gradientTransform="translate(657.72 -6401.21) rotate(-90) scale(21.24)" gradientUnits="userSpaceOnUse"><stop offset="0" stop-color="#faaf40"/><stop offset="0.31" stop-color="#f6921e"/><stop offset="0.95" stop-color="#be1e2d"/><stop offset="1" stop-color="#be1e2d"/></linearGradient><clipPath id="clip-path-5"><polygon class="cls-1" points="84.47 21.23 96.55 42.45 120.55 42.45 108.55 21.23 84.47 21.23"/></clipPath><linearGradient id="linear-gradient-5" x1="-303.44" y1="-28.41" x2="-302.44" y2="-28.41" gradientTransform="translate(705.79 -6401.21) rotate(-90) scale(21.24)" gradientUnits="userSpaceOnUse"><stop offset="0" stop-color="#49bfb5"/><stop offset="0.2" stop-color="#49bfb5"/><stop offset="0.39" stop-color="#3db2b6"/><stop offset="0.74" stop-color="#1c8fb9"/><stop offset="1" stop-color="#0071bb"/></linearGradient><clipPath id="clip-path-6"><polygon class="cls-1" points="12.4 21.23 0.4 42.45 24.4 42.45 36.4 21.23 12.4 21.23"/></clipPath><linearGradient id="linear-gradient-6" x1="-303.44" y1="-28.41" x2="-302.44" y2="-28.41" gradientTransform="translate(621.67 -6401.21) rotate(-90) scale(21.24)" gradientUnits="userSpaceOnUse"><stop offset="0" stop-color="#eb008b"/><stop offset="0.14" stop-color="#ca098c"/><stop offset="0.44" stop-color="#871a8e"/><stop offset="0.7" stop-color="#572690"/><stop offset="0.89" stop-color="#392e91"/><stop offset="1" stop-color="#2e3191"/></linearGradient><clipPath id="clip-path-7"><polygon class="cls-1" points="72.47 0 84.47 21.23 108.55 21.23 96.55 0 72.47 0"/></clipPath><linearGradient id="linear-gradient-7" x1="-293.37" y1="-19.06" x2="-292.37" y2="-19.06" gradientTransform="translate(10649.44 697.92) scale(36.05)" gradientUnits="userSpaceOnUse"><stop offset="0" stop-color="#49bfb5"/><stop offset="0.14" stop-color="#49bfb5"/><stop offset="1" stop-color="#007aba"/></linearGradient><clipPath id="clip-path-8"><polygon class="cls-1" points="24.4 0 36.4 21.23 60.47 21.23 48.47 0 24.4 0"/></clipPath><linearGradient id="linear-gradient-8" x1="-293.37" y1="-19.06" x2="-292.37" y2="-19.06" gradientTransform="translate(10601.37 697.92) scale(36.05)" gradientUnits="userSpaceOnUse"><stop offset="0" stop-color="#faaf40"/><stop offset="0.5" stop-color="#f6921e"/><stop offset="0.61" stop-color="#ef8420"/><stop offset="0.8" stop-color="#db6026"/><stop offset="1" stop-color="#c5372d"/></linearGradient><clipPath id="clip-path-9"><rect class="cls-1" x="0.4" width="302.33" height="42.45"/></clipPath></defs><g class="cls-2"><rect class="cls-3" x="12.4" width="24" height="21.23"/></g><g class="cls-4"><rect class="cls-5" x="60.47" y="21.23" width="24" height="21.23"/></g><g class="cls-6"><rect class="cls-7" x="60.47" width="24" height="21.23"/></g><g class="cls-8"><rect class="cls-9" x="36.4" y="21.23" width="36.08" height="21.23"/></g><g class="cls-10"><rect class="cls-11" x="84.47" y="21.23" width="36.08" height="21.23"/></g><g class="cls-12"><rect class="cls-13" x="0.4" y="21.23" width="36.08" height="21.23"/></g><g class="cls-14"><rect class="cls-15" x="72.47" width="36.08" height="21.23"/></g><g class="cls-16"><rect class="cls-17" x="24.4" width="36.08" height="21.23"/></g><g class="cls-18"><path class="cls-19" d="M136.15,31.8h-5V12.9a19.58,19.58,0,0,1,8.7-1.87,8.49,8.49,0,0,1,4.88,1.2,17.81,17.81,0,0,1,6.15-1.2c6.45,0,7.42,3.52,7.42,7.72V31.8h-5V19.2c0-2.7-.6-4.12-3.45-4.12a7.12,7.12,0,0,0-2.85.67,12.75,12.75,0,0,1,.3,2.92v13h-5V19.12c0-2.62-.6-4.12-3.37-4.12a7.5,7.5,0,0,0-2.7.52V31.8Z"/></g><g class="cls-18"><path class="cls-19" d="M162,21.52C162,14.1,164.27,11,171,11c7.35,0,8.85,3.9,8.85,10.12a11.33,11.33,0,0,1-.08,1.65,88,88,0,0,1-9.52,1.05l-3.3.15c.15,3.23,1.87,4,4.72,4a64.88,64.88,0,0,0,7.28-.53l.45,3.83a48.59,48.59,0,0,1-8.78.75c-6.82.15-8.62-4.35-8.62-10.43m8.25-1.19c1.27-.08,3.37-.23,4.5-.38,0-.22.07-.6.07-.83,0-2.7-1-4.2-3.82-4.2-3.68,0-4.2,2.33-4.2,5.55Z"/></g><g class="cls-18"><path class="cls-19" d="M195.55,3.38h5V30.23a17.11,17.11,0,0,1-8.25,1.87c-6.75,0-9.52-2.48-9.52-10.58,0-7.95,2.77-10.5,8.92-10.5a16.17,16.17,0,0,1,3.83.46Zm-2.85,11.7c-4.8,0-4.95,2.77-4.95,6.52,0,3.38.22,6.52,4.5,6.52a8.21,8.21,0,0,0,3.22-.52V15.52a8.51,8.51,0,0,0-2.77-.44"/></g><g class="cls-18"><path class="cls-19" d="M204.47,6c0-2.1.75-2.93,2.93-2.93s2.92.75,2.92,2.93-.67,2.92-2.92,2.92S204.47,8.1,204.47,6m.45,5.25h5V31.8h-5Z"/></g><g class="cls-18"><path class="cls-19" d="M213.7,25.58c0-3.6,1.57-5.85,5.55-6.53a44.92,44.92,0,0,1,6.45-.52c0-2.4-1-3.45-3.68-3.45a68.7,68.7,0,0,0-7.12.52l-.38-3.83A46.55,46.55,0,0,1,222.4,11c4.5,0,8.25,1.28,8.25,6.6V30.23a20,20,0,0,1-9.15,1.87c-5.55,0-7.8-2.17-7.8-6.52m12.07-3.75a30.91,30.91,0,0,0-4.65.45c-1.72.45-2.47,1-2.47,3.15s1.2,2.7,3.45,2.7a10.15,10.15,0,0,0,3.67-.53Z"/></g><g class="cls-18"><path class="cls-19" d="M248.57,31.27A25.73,25.73,0,0,1,242,32c-6.75,0-7.8-5.25-7.8-10.72,0-6.75,1.58-10.35,8.93-10.35a20.13,20.13,0,0,1,5.4.75l-.38,3.75a19.29,19.29,0,0,0-3.67-.45c-4.73,0-5.18,1.42-5.18,6.3,0,4.57.23,6.6,5.25,6.6a20.14,20.14,0,0,0,3.6-.45Z"/></g><g class="cls-18"><path class="cls-19" d="M250.45,21.52c0-7.64,2.4-10.5,9-10.5s9,3,9,10.5-2.4,10.58-9,10.58-9-2.85-9-10.58m13.05,0c0-4.95-.83-6.45-4-6.45s-4,1.28-4,6.45.82,6.46,4,6.46,4-1.43,4-6.46"/></g><g class="cls-18"><path class="cls-19" d="M272,31.8V12.9A17.11,17.11,0,0,1,280.22,11a18.27,18.27,0,0,1,2,.07l-.38,4.13a8.05,8.05,0,0,0-1.42-.08,9.28,9.28,0,0,0-3.45.6V31.8Z"/></g><g class="cls-18"><path class="cls-19" d="M289.9,39.38h-5V12.9A17.11,17.11,0,0,1,293.12,11c6.68,0,9.53,2.48,9.53,10.58,0,8-2.78,10.5-8.93,10.5a16.61,16.61,0,0,1-3.82-.45Zm2.77-11.33c4.8,0,4.95-2.77,4.95-6.52,0-3.38-.22-6.53-4.5-6.53a8.9,8.9,0,0,0-3.3.53V27.6a9.82,9.82,0,0,0,2.85.45"/></g></svg>