<?xml version="1.0" encoding="utf-8"?>
<!-- Generator: Adobe Illustrator 26.0.0, SVG Export Plug-In . SVG Version: 6.00 Build 0)  -->
<svg version="1.1" id="Layer_1" xmlns="http://www.w3.org/2000/svg" xmlns:xlink="http://www.w3.org/1999/xlink" x="0px" y="0px"
	 viewBox="0 0 516 69.8" style="enable-background:new 0 0 516 69.8;" xml:space="preserve">
<style type="text/css">
	.st0{fill:#424143;}
	.st1{fill:#A00202;}
	.st2{fill:#C6D781;}
	.st3{fill:#CBAC81;}
	.st4{fill:#AE9842;}
</style>
<g>
	<g>
		<path class="st0" d="M150.3,52.5l2.2-4.9c2.1,1.7,4.2,2.9,6.4,3.6s4.7,1.1,7.4,1.1c2.9,0,5.1-0.5,6.7-1.5c1.5-1,2.3-2.4,2.3-4.3
			c0-1.6-0.5-2.8-1.5-3.7s-2.7-1.6-5.1-2.2l-6.6-1.5c-3.3-0.8-5.9-2-7.7-3.9c-1.8-1.8-2.7-4.1-2.7-6.8c0-3.5,1.4-6.3,4.1-8.5
			c2.8-2.2,6.4-3.2,11-3.2c2.8,0,5.4,0.4,7.8,1.3c2.5,0.9,4.6,2.2,6.2,3.8l-2.2,4.8C175,23.5,171,22,166.7,22
			c-2.8,0-4.9,0.5-6.4,1.6S158,26.1,158,28c0,1.6,0.5,2.8,1.4,3.8c0.9,0.9,2.5,1.7,4.6,2.1l6.7,1.6c3.7,0.9,6.4,2.2,8.2,3.9
			c1.8,1.8,2.7,4,2.7,6.8c0,3.5-1.4,6.2-4.2,8.3s-6.6,3.1-11.4,3.1C159.4,57.6,154.2,55.9,150.3,52.5z"/>
		<path class="st0" d="M224.6,38.4h-28.8c0.2,4.6,1.5,8,3.7,10.4c2.3,2.3,5.5,3.5,9.6,3.5c4.6,0,8.8-1.6,12.6-4.7l2.2,4.8
			c-1.7,1.6-3.9,2.9-6.6,3.8c-2.7,0.9-5.4,1.4-8.3,1.4c-6.1,0-11-1.8-14.5-5.4s-5.3-8.6-5.3-15c0-4,0.8-7.6,2.3-10.7
			c1.6-3.1,3.8-5.5,6.6-7.2s6.1-2.6,9.7-2.6c5.2,0,9.3,1.7,12.3,5.1s4.4,8.1,4.4,14.1v2.5H224.6z M199.6,25
			c-2.1,2.2-3.3,5.2-3.7,9.1h22.9c-0.1-4-1.1-7.1-3-9.2s-4.5-3.2-7.9-3.2C204.4,21.8,201.7,22.9,199.6,25z"/>
		<path class="st0" d="M268.2,32.3v24.8h-6.6V32.7c0-3.7-0.7-6.3-2.1-8s-3.7-2.5-6.8-2.5c-3.6,0-6.5,1.1-8.7,3.3s-3.2,5.2-3.2,9
			v22.6h-6.6V17.6h6.5v6.5c1.3-2.4,3.1-4.3,5.4-5.5c2.3-1.3,5-1.9,7.9-1.9C263.4,16.7,268.2,21.9,268.2,32.3z"/>
		<path class="st0" d="M301,52.1l-0.3,5.2c-1.2,0.2-2.6,0.3-4,0.3c-4.7,0-8.3-1.2-10.7-3.7c-2.4-2.5-3.6-5.9-3.6-10.4V22.8h-7.7
			v-5.2h7.7v-12h6.6v12h11.2v5.2H289V43c0,6.2,2.9,9.3,8.6,9.3C298.6,52.4,299.8,52.3,301,52.1z"/>
		<path class="st0" d="M307.6,57V17.6h6.6V57H307.6z M315.2,4.3c0,2.4-1.9,4.3-4.3,4.3s-4.3-1.9-4.3-4.3s1.9-4.3,4.3-4.3
			S315.2,1.9,315.2,4.3z"/>
		<path class="st0" d="M359.4,38.4h-28.8c0.2,4.6,1.5,8,3.7,10.4c2.3,2.3,5.5,3.5,9.6,3.5c4.6,0,8.8-1.6,12.6-4.7l2.2,4.8
			c-1.7,1.6-3.9,2.9-6.6,3.8s-5.4,1.4-8.3,1.4c-6.1,0-11-1.8-14.5-5.4s-5.3-8.6-5.3-15c0-4,0.8-7.6,2.3-10.7
			c1.6-3.1,3.8-5.5,6.6-7.2c2.8-1.7,6.1-2.6,9.7-2.6c5.2,0,9.3,1.7,12.3,5.1s4.4,8.1,4.4,14.1L359.4,38.4L359.4,38.4z M334.5,25
			c-2.1,2.2-3.3,5.2-3.7,9.1h22.9c-0.1-4-1.1-7.1-3-9.2s-4.5-3.2-7.9-3.2C339.3,21.8,336.5,22.9,334.5,25z"/>
		<path class="st0" d="M403,32.3v24.8h-6.6V32.7c0-3.7-0.7-6.3-2.1-8s-3.7-2.5-6.8-2.5c-3.6,0-6.5,1.1-8.7,3.3s-3.2,5.2-3.2,9v22.6
			H369V17.6h6.5v6.5c1.3-2.4,3.1-4.3,5.4-5.5c2.3-1.3,5-1.9,7.9-1.9C398.3,16.7,403,21.9,403,32.3z"/>
		<path class="st0" d="M435.9,52.1l-0.3,5.2c-1.2,0.2-2.6,0.3-4,0.3c-4.7,0-8.3-1.2-10.7-3.7c-2.4-2.5-3.6-5.9-3.6-10.4V22.8h-7.7
			v-5.2h7.7v-12h6.6v12h11.2v5.2h-11.2V43c0,6.2,2.9,9.3,8.6,9.3C433.5,52.4,434.7,52.3,435.9,52.1z"/>
		<path class="st0" d="M462.2,57V17.6h6.6V57H462.2z"/>
		<path class="st0" d="M487.4,55.1c-2.8-1.7-5-4.1-6.6-7.2c-1.5-3.1-2.3-6.7-2.3-10.8s0.8-7.7,2.3-10.8s3.7-5.5,6.6-7.2
			c2.8-1.7,6.1-2.5,9.8-2.5s7,0.8,9.9,2.5s5.1,4.1,6.6,7.2S516,33,516,37.1s-0.8,7.7-2.3,10.8s-3.7,5.5-6.6,7.2s-6.1,2.5-9.9,2.5
			C493.6,57.6,490.3,56.8,487.4,55.1z M506.2,48.3c2.1-2.6,3.1-6.3,3.1-11.2c0-4.8-1.1-8.5-3.2-11.1s-5.1-3.9-8.9-3.9
			s-6.8,1.3-8.9,3.9s-3.2,6.3-3.2,11.1c0,4.9,1,8.6,3.1,11.2s5.1,3.9,8.9,3.9C501.2,52.2,504.1,50.9,506.2,48.3z"/>
		<circle class="st0" cx="446.6" cy="53.1" r="4.5"/>
		<circle class="st0" cx="465.2" cy="4.3" r="4.3"/>
	</g>
	<g>
		<polygon class="st1" points="68.3,36.4 15.2,21.2 68.3,6.1 121.5,21.2 		"/>
		<polygon class="st2" points="82,43.3 53.2,51.6 39.5,47.7 15.2,54.6 68.3,69.8 121.5,54.6 		"/>
		<polygon class="st3" points="82,43.3 106.3,36.4 87.3,31 68.3,36.4 34.2,26.7 0,36.4 39.5,47.7 68.3,39.4 		"/>
		<polygon class="st4" points="82,43.3 68.3,39.4 39.5,47.7 53.2,51.6 		"/>
	</g>
</g>
</svg>
